<svg width="90" height="50" viewBox="0 0 90 50" fill="none" xmlns="http://www.w3.org/2000/svg">
<path d="M32.915 38.4131H13.6377L9.60449 50H0.615234L19.4141 0.234375H27.1729L46.0059 50H36.9824L32.915 38.4131ZM16.0645 31.4404H30.4883L23.2764 10.7959L16.0645 31.4404ZM69.9658 30.8252H60.3271V50H51.6797V0.234375H69.1797C74.9219 0.234375 79.3538 1.52181 82.4756 4.09668C85.5973 6.67155 87.1582 10.3971 87.1582 15.2734C87.1582 18.6003 86.3493 21.3916 84.7314 23.6475C83.1364 25.8805 80.9033 27.6009 78.0322 28.8086L89.209 49.5557V50H79.9463L69.9658 30.8252ZM60.3271 23.8867H69.2139C72.1305 23.8867 74.4092 23.1576 76.0498 21.6992C77.6904 20.2181 78.5107 18.2015 78.5107 15.6494C78.5107 12.9834 77.7474 10.9212 76.2207 9.46289C74.7168 8.00456 72.4609 7.2526 69.4531 7.20703H60.3271V23.8867Z" fill="white"/>
</svg>
