{
    "asset" : {
        "generator" : "Khronos glTF Blender I/O v1.1.46",
        "version" : "2.0"
    },
    "extensionsUsed" : [
        "KHR_texture_transform"
    ],
    "extensionsRequired" : [
        "KHR_texture_transform"
    ],
    "scene" : 0,
    "scenes" : [
        {
            "name" : "Scene",
            "nodes" : [
                0,
                1,
                2
            ]
        }
    ],
    "nodes" : [
        {
            "mesh" : 0,
            "name" : "main",
            "rotation" : [
                0.7071068286895752,
                0,
                0,
                0.7071067094802856
            ],
            "scale" : [
                0.009999999776482582,
                0.009999999776482582,
                0.009999999776482582
            ],
            "translation" : [
                0.00613674009218812,
                0.5436493754386902,
                0.20750883221626282
            ]
        },
        {
            "mesh" : 1,
            "name" : "matras",
            "rotation" : [
                0.7071068286895752,
                0,
                0,
                0.7071067094802856
            ],
            "scale" : [
                0.009999999776482582,
                0.009999999776482582,
                0.009999999776482582
            ],
            "translation" : [
                0.033940427005290985,
                0.23299959301948547,
                0.22123406827449799
            ]
        },
        {
            "mesh" : 2,
            "name" : "legs",
            "scale" : [
                1,
                1,
                0.8999999761581421
            ],
            "translation" : [
                0.004973585717380047,
                -0.03292642533779144,
                0.20117872953414917
            ]
        }
    ],
    "materials" : [
        {
            "doubleSided" : true,
            "emissiveFactor" : [
                0,
                0,
                0
            ],
            "name" : "main",
            "pbrMetallicRoughness" : {
                "baseColorTexture" : {
                    "extensions" : {
                        "KHR_texture_transform" : {
                            "offset" : [
                                0,
                                -1
                            ]
                        }
                    },
                    "index" : 0,
                    "texCoord" : 0
                },
                "metallicFactor" : 0,
                "roughnessFactor" : 0.5527864098548889
            }
        },
        {
            "doubleSided" : true,
            "emissiveFactor" : [
                0,
                0,
                0
            ],
            "name" : "matras",
            "pbrMetallicRoughness" : {
                "baseColorFactor" : [
                    1,
                    1,
                    1,
                    1
                ],
                "metallicFactor" : 0,
                "roughnessFactor" : 0.5527864098548889
            }
        },
        {
            "doubleSided" : true,
            "emissiveFactor" : [
                0,
                0,
                0
            ],
            "name" : "legs",
            "pbrMetallicRoughness" : {
                "baseColorFactor" : [
                    1,
                    1,
                    1,
                    1
                ],
                "metallicFactor" : 0,
                "roughnessFactor" : 0.35019809007644653
            }
        }
    ],
    "meshes" : [
        {
            "name" : "Mesh",
            "primitives" : [
                {
                    "attributes" : {
                        "POSITION" : 0,
                        "NORMAL" : 1,
                        "TEXCOORD_0" : 2
                    },
                    "indices" : 3,
                    "material" : 0
                }
            ]
        },
        {
            "name" : "Mesh.001",
            "primitives" : [
                {
                    "attributes" : {
                        "POSITION" : 4,
                        "NORMAL" : 5,
                        "TEXCOORD_0" : 6
                    },
                    "indices" : 7,
                    "material" : 1
                }
            ]
        },
        {
            "name" : "Mesh.002",
            "primitives" : [
                {
                    "attributes" : {
                        "POSITION" : 8,
                        "NORMAL" : 9,
                        "TEXCOORD_0" : 10
                    },
                    "indices" : 11,
                    "material" : 2
                }
            ]
        }
    ],
    "textures" : [
        {
            "source" : 0
        }
    ],
    "images" : [
        {
            "mimeType" : "image/png",
            "name" : "brown-brown.png",
            "uri" : "brown-brown_png.png"
        }
    ],
    "accessors" : [
        {
            "bufferView" : 0,
            "componentType" : 5126,
            "count" : 126549,
            "max" : [
                102.99030303955078,
                85.47706604003906,
                49.49250030517578
            ],
            "min" : [
                -102.99030303955078,
                -85.47706604003906,
                -49.49250030517578
            ],
            "type" : "VEC3"
        },
        {
            "bufferView" : 1,
            "componentType" : 5126,
            "count" : 126549,
            "type" : "VEC3"
        },
        {
            "bufferView" : 2,
            "componentType" : 5126,
            "count" : 126549,
            "type" : "VEC2"
        },
        {
            "bufferView" : 3,
            "componentType" : 5125,
            "count" : 722628,
            "type" : "SCALAR"
        },
        {
            "bufferView" : 4,
            "componentType" : 5126,
            "count" : 79230,
            "max" : [
                100,
                82.5,
                20
            ],
            "min" : [
                -100,
                -82.5,
                -20
            ],
            "type" : "VEC3"
        },
        {
            "bufferView" : 5,
            "componentType" : 5126,
            "count" : 79230,
            "type" : "VEC3"
        },
        {
            "bufferView" : 6,
            "componentType" : 5126,
            "count" : 79230,
            "type" : "VEC2"
        },
        {
            "bufferView" : 7,
            "componentType" : 5125,
            "count" : 466944,
            "type" : "SCALAR"
        },
        {
            "bufferView" : 8,
            "componentType" : 5126,
            "count" : 80,
            "max" : [
                0.8810935616493225,
                0.11023479700088501,
                0.8041234612464905
            ],
            "min" : [
                -0.7933960556983948,
                0.004382312297821045,
                -0.7984468340873718
            ],
            "type" : "VEC3"
        },
        {
            "bufferView" : 9,
            "componentType" : 5126,
            "count" : 80,
            "type" : "VEC3"
        },
        {
            "bufferView" : 10,
            "componentType" : 5126,
            "count" : 80,
            "type" : "VEC2"
        },
        {
            "bufferView" : 11,
            "componentType" : 5123,
            "count" : 432,
            "type" : "SCALAR"
        }
    ],
    "bufferViews" : [
        {
            "buffer" : 0,
            "byteLength" : 1518588,
            "byteOffset" : 0
        },
        {
            "buffer" : 0,
            "byteLength" : 1518588,
            "byteOffset" : 1518588
        },
        {
            "buffer" : 0,
            "byteLength" : 1012392,
            "byteOffset" : 3037176
        },
        {
            "buffer" : 0,
            "byteLength" : 2890512,
            "byteOffset" : 4049568
        },
        {
            "buffer" : 0,
            "byteLength" : 950760,
            "byteOffset" : 6940080
        },
        {
            "buffer" : 0,
            "byteLength" : 950760,
            "byteOffset" : 7890840
        },
        {
            "buffer" : 0,
            "byteLength" : 633840,
            "byteOffset" : 8841600
        },
        {
            "buffer" : 0,
            "byteLength" : 1867776,
            "byteOffset" : 9475440
        },
        {
            "buffer" : 0,
            "byteLength" : 960,
            "byteOffset" : 11343216
        },
        {
            "buffer" : 0,
            "byteLength" : 960,
            "byteOffset" : 11344176
        },
        {
            "buffer" : 0,
            "byteLength" : 640,
            "byteOffset" : 11345136
        },
        {
            "buffer" : 0,
            "byteLength" : 864,
            "byteOffset" : 11345776
        }
    ],
    "buffers" : [
        {
            "byteLength" : 11346640,
            "uri" : "new2.bin"
        }
    ]
}
